<mxfile host="app.diagrams.net" modified="2022-08-05T15:48:35.920Z" agent="5.0 (Macintosh; Intel Mac OS X 10_15_7) AppleWebKit/537.36 (KHTML, like Gecko) Chrome/103.0.5060.114 Safari/537.36 OPR/89.0.4447.48" etag="KdomS_Sv-oJLRNAzJOZr" version="20.0.1" type="github">
  <diagram id="TQznCduU97zVCQKrsdvs" name="Page-1">
    <mxGraphModel dx="1223" dy="882" grid="1" gridSize="10" guides="1" tooltips="1" connect="1" arrows="1" fold="1" page="1" pageScale="1" pageWidth="827" pageHeight="1169" math="0" shadow="0">
      <root>
        <mxCell id="0" />
        <mxCell id="1" parent="0" />
        <mxCell id="_JZJjxQ-ORJZBQDaoxtO-13" style="edgeStyle=orthogonalEdgeStyle;rounded=0;sketch=1;orthogonalLoop=1;jettySize=auto;html=1;exitX=0.5;exitY=1;exitDx=0;exitDy=0;entryX=0.5;entryY=0;entryDx=0;entryDy=0;" parent="1" source="E9NbrFNwdi9rvoexSHs9-1" target="_JZJjxQ-ORJZBQDaoxtO-1" edge="1">
          <mxGeometry relative="1" as="geometry" />
        </mxCell>
        <mxCell id="E9NbrFNwdi9rvoexSHs9-1" value="&lt;font&gt;Programmierparadigmen&lt;/font&gt;" style="rounded=0;whiteSpace=wrap;html=1;sketch=1;fontFamily=Comic Sans MS;fontSize=20;fillColor=#dae8fc;strokeColor=#6c8ebf;" parent="1" vertex="1">
          <mxGeometry x="269" y="80" width="290" height="40" as="geometry" />
        </mxCell>
        <mxCell id="_JZJjxQ-ORJZBQDaoxtO-15" style="edgeStyle=orthogonalEdgeStyle;rounded=0;sketch=1;orthogonalLoop=1;jettySize=auto;html=1;exitX=0.5;exitY=1;exitDx=0;exitDy=0;entryX=0.5;entryY=0;entryDx=0;entryDy=0;" parent="1" source="_JZJjxQ-ORJZBQDaoxtO-1" target="_JZJjxQ-ORJZBQDaoxtO-4" edge="1">
          <mxGeometry relative="1" as="geometry" />
        </mxCell>
        <mxCell id="_JZJjxQ-ORJZBQDaoxtO-1" value="Imperativ" style="rounded=0;whiteSpace=wrap;html=1;sketch=1;fontFamily=Comic Sans MS;fontSize=20;fillColor=#d5e8d4;strokeColor=#82b366;" parent="1" vertex="1">
          <mxGeometry x="90" y="200" width="240" height="40" as="geometry" />
        </mxCell>
        <mxCell id="_JZJjxQ-ORJZBQDaoxtO-18" style="edgeStyle=orthogonalEdgeStyle;rounded=0;sketch=1;orthogonalLoop=1;jettySize=auto;html=1;exitX=0.5;exitY=1;exitDx=0;exitDy=0;" parent="1" source="_JZJjxQ-ORJZBQDaoxtO-2" target="_JZJjxQ-ORJZBQDaoxtO-5" edge="1">
          <mxGeometry relative="1" as="geometry" />
        </mxCell>
        <mxCell id="_JZJjxQ-ORJZBQDaoxtO-2" value="Deklarativ" style="rounded=0;whiteSpace=wrap;html=1;sketch=1;fontFamily=Comic Sans MS;fontSize=20;fillColor=#d5e8d4;strokeColor=#82b366;" parent="1" vertex="1">
          <mxGeometry x="495" y="200" width="240" height="40" as="geometry" />
        </mxCell>
        <mxCell id="_JZJjxQ-ORJZBQDaoxtO-3" value="Objektorientiert" style="rounded=0;whiteSpace=wrap;html=1;sketch=1;fontFamily=Comic Sans MS;fontSize=20;fillColor=#d5e8d4;strokeColor=#82b366;" parent="1" vertex="1">
          <mxGeometry x="226" y="320" width="170" height="40" as="geometry" />
        </mxCell>
        <mxCell id="_JZJjxQ-ORJZBQDaoxtO-4" value="Prozedural" style="rounded=0;whiteSpace=wrap;html=1;sketch=1;fontFamily=Comic Sans MS;fontSize=20;fillColor=#d5e8d4;strokeColor=#82b366;" parent="1" vertex="1">
          <mxGeometry x="22" y="320" width="170" height="40" as="geometry" />
        </mxCell>
        <mxCell id="_JZJjxQ-ORJZBQDaoxtO-5" value="Funktional" style="rounded=0;whiteSpace=wrap;html=1;sketch=1;fontFamily=Comic Sans MS;fontSize=20;fillColor=#d5e8d4;strokeColor=#82b366;" parent="1" vertex="1">
          <mxGeometry x="432" y="320" width="170" height="40" as="geometry" />
        </mxCell>
        <mxCell id="_JZJjxQ-ORJZBQDaoxtO-6" value="Logisch" style="rounded=0;whiteSpace=wrap;html=1;sketch=1;fontFamily=Comic Sans MS;fontSize=20;fillColor=#d5e8d4;strokeColor=#82b366;" parent="1" vertex="1">
          <mxGeometry x="632" y="320" width="170" height="40" as="geometry" />
        </mxCell>
        <mxCell id="_JZJjxQ-ORJZBQDaoxtO-14" style="edgeStyle=orthogonalEdgeStyle;rounded=0;sketch=1;orthogonalLoop=1;jettySize=auto;html=1;exitX=0.5;exitY=1;exitDx=0;exitDy=0;" parent="1" source="E9NbrFNwdi9rvoexSHs9-1" target="_JZJjxQ-ORJZBQDaoxtO-2" edge="1">
          <mxGeometry relative="1" as="geometry">
            <mxPoint x="424" y="130" as="sourcePoint" />
            <mxPoint x="390" y="190" as="targetPoint" />
          </mxGeometry>
        </mxCell>
        <mxCell id="_JZJjxQ-ORJZBQDaoxtO-17" style="edgeStyle=orthogonalEdgeStyle;rounded=0;sketch=1;orthogonalLoop=1;jettySize=auto;html=1;exitX=0.5;exitY=1;exitDx=0;exitDy=0;" parent="1" source="_JZJjxQ-ORJZBQDaoxtO-1" target="_JZJjxQ-ORJZBQDaoxtO-3" edge="1">
          <mxGeometry relative="1" as="geometry">
            <mxPoint x="229" y="250" as="sourcePoint" />
            <mxPoint x="117" y="330" as="targetPoint" />
          </mxGeometry>
        </mxCell>
        <mxCell id="_JZJjxQ-ORJZBQDaoxtO-20" style="edgeStyle=orthogonalEdgeStyle;rounded=0;sketch=1;orthogonalLoop=1;jettySize=auto;html=1;exitX=0.5;exitY=1;exitDx=0;exitDy=0;entryX=0.5;entryY=0;entryDx=0;entryDy=0;" parent="1" source="_JZJjxQ-ORJZBQDaoxtO-2" target="_JZJjxQ-ORJZBQDaoxtO-6" edge="1">
          <mxGeometry relative="1" as="geometry">
            <mxPoint x="625" y="250" as="sourcePoint" />
            <mxPoint x="527" y="330" as="targetPoint" />
          </mxGeometry>
        </mxCell>
      </root>
    </mxGraphModel>
  </diagram>
</mxfile>
